<?xml version="1.0" encoding="utf-8"?>
<svg viewBox="468.68 250.092 269.643 269.643" xmlns="http://www.w3.org/2000/svg" xmlns:xlink="http://www.w3.org/1999/xlink">
  <defs>
    <linearGradient id="linearGradient4624-1" x1="407.94815" y1="-273.46536" x2="669.01959" y2="-12.036802" gradientUnits="userSpaceOnUse" gradientTransform="matrix(1, 0, 0, 1, 117.298424, 533.860718)" xlink:href="#linearGradient4624"/>
    <linearGradient id="linearGradient4624">
      <stop style="stop-color:#4343d6;stop-opacity:1;" offset="0" id="stop4626"/>
      <stop style="stop-color:#17178a;stop-opacity:1;" offset="1" id="stop4628"/>
    </linearGradient>
    <linearGradient id="linearGradient7072-1" gradientUnits="userSpaceOnUse" gradientTransform="translate(376.51737,1.6259769)" x1="121.05798" y1="136.50584" x2="105.22852" y2="123.11299" xlink:href="#linearGradient7072"/>
    <linearGradient id="linearGradient7072">
      <stop id="stop7074" offset="0" style="stop-color:#f1f1fc;stop-opacity:1;"/>
      <stop id="stop7076" offset="1" style="stop-color:#acacf1;stop-opacity:1;"/>
    </linearGradient>
    <linearGradient id="linearGradient7072-2" gradientUnits="userSpaceOnUse" gradientTransform="translate(376.51737,1.6259769)" x1="56.27581" y1="154.73219" x2="290.42816" y2="154.73219" xlink:href="#linearGradient7072"/>
    <linearGradient id="linearGradient7072-3" gradientUnits="userSpaceOnUse" gradientTransform="translate(376.51737,1.6259769)" x1="120.87941" y1="185.27998" x2="105.40709" y2="171.35141" xlink:href="#linearGradient7072"/>
    <linearGradient id="linearGradient7072-4" gradientUnits="userSpaceOnUse" gradientTransform="translate(376.51737,1.6259769)" x1="56.27581" y1="154.73219" x2="290.42816" y2="154.73219" xlink:href="#linearGradient7072"/>
    <linearGradient id="linearGradient7072-5" gradientUnits="userSpaceOnUse" gradientTransform="translate(376.51737,1.6259769)" x1="145.17719" y1="137.04156" x2="129.16916" y2="123.11299" xlink:href="#linearGradient7072"/>
    <linearGradient id="linearGradient7072-6" gradientUnits="userSpaceOnUse" gradientTransform="translate(376.51737,1.6259769)" x1="56.27581" y1="154.73219" x2="290.42816" y2="154.73219" xlink:href="#linearGradient7072"/>
    <linearGradient id="linearGradient7072-7" gradientUnits="userSpaceOnUse" gradientTransform="translate(376.51737,1.6259769)" x1="218.07056" y1="136.50584" x2="201.52679" y2="123.11299" xlink:href="#linearGradient7072"/>
    <linearGradient id="linearGradient7072-8" gradientUnits="userSpaceOnUse" gradientTransform="translate(376.51737,1.6259769)" x1="56.27581" y1="154.73219" x2="290.42816" y2="154.73219" xlink:href="#linearGradient7072"/>
    <linearGradient id="linearGradient7072-9" gradientUnits="userSpaceOnUse" gradientTransform="translate(376.51737,1.6259769)" x1="265.77325" y1="160.98219" x2="249.94377" y2="147.41077" xlink:href="#linearGradient7072"/>
    <linearGradient id="linearGradient7072-10" gradientUnits="userSpaceOnUse" gradientTransform="translate(376.51737,1.6259769)" x1="56.27581" y1="154.73219" x2="290.42816" y2="154.73219" xlink:href="#linearGradient7072"/>
  </defs>
  <g transform="matrix(1, 0, 0, 1, -47.280949, -13.339108)">
    <rect ry="6.339" y="263.431" x="515.961" height="269.643" width="269.643" id="rect-1" style="fill-opacity: 1; stroke: none; fill: url(#linearGradient4624-1);"/>
    <g transform="matrix(1, 0, 0, 1, 101.22699, 281.401062)" id="g-1">
      <rect y="124.19923" x="433.29318" height="16.079473" width="16.079473" id="rect-2" style="fill:none;stroke:#ffffff;stroke-width:1;stroke-opacity:1"/>
      <rect style="fill:none;stroke:#ffffff;stroke-width:1;stroke-opacity:1" id="rect-3" width="16.079473" height="16.079473" x="433.29318" y="148.31845"/>
      <rect style="fill:none;stroke:#ffffff;stroke-width:1;stroke-opacity:1" id="rect-4" width="16.079473" height="16.079473" x="433.29318" y="172.43765"/>
      <rect style="fill:none;stroke:#ffffff;stroke-width:1;stroke-opacity:1" id="rect-5" width="16.079473" height="16.079473" x="457.41238" y="124.19923"/>
      <rect style="fill:none;stroke:#ffffff;stroke-width:1;stroke-opacity:1" id="rect-6" width="16.079473" height="16.079473" x="457.41238" y="148.31845"/>
      <rect style="fill:none;stroke:#ffffff;stroke-width:1;stroke-opacity:1" id="rect-7" width="16.079473" height="16.079473" x="457.41238" y="172.43765"/>
      <rect style="fill-opacity: 1; stroke-width: 1; stroke-opacity: 1; fill: url(#linearGradient7072-1); stroke: url(#linearGradient7072-2);" id="rect-8" width="16.079473" height="16.079473" x="481.53159" y="124.19923"/>
      <rect style="fill:none;stroke:#ffffff;stroke-width:1;stroke-opacity:1" id="rect-9" width="16.079473" height="16.079473" x="481.53159" y="148.31845"/>
      <rect style="fill-opacity: 1; stroke-width: 1; stroke-opacity: 1; fill: url(#linearGradient7072-3); stroke: url(#linearGradient7072-4);" id="rect-10" width="16.079473" height="16.079473" x="481.53159" y="172.43765"/>
      <rect style="fill-opacity: 1; stroke-width: 1; stroke-opacity: 1; fill: url(#linearGradient7072-5); stroke: url(#linearGradient7072-6);" id="rect-11" width="16.079473" height="16.079473" x="505.65082" y="124.19923"/>
      <rect style="fill:none;stroke:#ffffff;stroke-width:1;stroke-opacity:1" id="rect-12" width="16.079473" height="16.079473" x="505.65082" y="148.31845"/>
      <rect style="fill:none;stroke:#ffffff;stroke-width:1;stroke-opacity:1" id="rect-13" width="16.079473" height="16.079473" x="505.65082" y="172.43765"/>
      <rect style="fill:none;stroke:#ffffff;stroke-width:1;stroke-opacity:1" id="rect-14" width="16.079473" height="16.079473" x="529.77002" y="124.19923"/>
      <rect style="fill:none;stroke:#ffffff;stroke-width:1;stroke-opacity:1" id="rect-15" width="16.079473" height="16.079473" x="529.77002" y="148.31845"/>
      <rect style="fill:none;stroke:#ffffff;stroke-width:1;stroke-opacity:1" id="rect-16" width="16.079473" height="16.079473" x="529.77002" y="172.43765"/>
      <rect style="fill:none;stroke:#ffffff;stroke-width:1;stroke-opacity:1" id="rect-17" width="16.079473" height="16.079473" x="553.88922" y="124.19923"/>
      <rect style="fill:none;stroke:#ffffff;stroke-width:1;stroke-opacity:1" id="rect-18" width="16.079473" height="16.079473" x="553.88922" y="148.31845"/>
      <rect style="fill:none;stroke:#ffffff;stroke-width:1;stroke-opacity:1" id="rect-19" width="16.079473" height="16.079473" x="553.88922" y="172.43765"/>
      <rect style="fill-opacity: 1; stroke-width: 1; stroke-opacity: 1; fill: url(#linearGradient7072-7); stroke: url(#linearGradient7072-8);" id="rect-20" width="16.079473" height="16.079473" x="578.00842" y="124.19923"/>
      <rect style="fill:none;stroke:#ffffff;stroke-width:1;stroke-opacity:1" id="rect-21" width="16.079473" height="16.079473" x="578.00842" y="148.31845"/>
      <rect style="fill:none;stroke:#ffffff;stroke-width:1;stroke-opacity:1" id="rect-22" width="16.079473" height="16.079473" x="578.00842" y="172.43765"/>
      <rect style="fill:none;stroke:#ffffff;stroke-width:1;stroke-opacity:1" id="rect-23" width="16.079473" height="16.079473" x="602.12762" y="124.19923"/>
      <rect style="fill:none;stroke:#ffffff;stroke-width:1;stroke-opacity:1" id="rect-24" width="16.079473" height="16.079473" x="602.12762" y="148.31845"/>
      <rect style="fill:none;stroke:#ffffff;stroke-width:1;stroke-opacity:1" id="rect-25" width="16.079473" height="16.079473" x="602.12762" y="172.43765"/>
      <rect style="fill:none;stroke:#ffffff;stroke-width:1;stroke-opacity:1" id="rect-26" width="16.079473" height="16.079473" x="626.24689" y="124.19923"/>
      <rect style="fill-opacity: 1; stroke-width: 1; stroke-opacity: 1; fill: url(#linearGradient7072-9); stroke: url(#linearGradient7072-10);" id="rect-27" width="16.079473" height="16.079473" x="626.24689" y="148.31844"/>
      <rect style="fill:none;stroke:#ffffff;stroke-width:1;stroke-opacity:1" id="rect-28" width="16.079473" height="16.079473" x="626.24689" y="172.43765"/>
      <rect style="fill:none;stroke:#ffffff;stroke-width:1;stroke-opacity:1" id="rect-29" width="16.079473" height="16.079473" x="650.36609" y="124.19923"/>
      <rect style="fill:none;stroke:#ffffff;stroke-width:1;stroke-opacity:1" id="rect-30" width="16.079473" height="16.079473" x="650.36609" y="148.31845"/>
      <rect style="fill:none;stroke:#ffffff;stroke-width:1;stroke-opacity:1" id="rect-31" width="16.079473" height="16.079473" x="650.36609" y="172.43765"/>
    </g>
    <g id="g-2" transform="matrix(1, 0, 0, 1, 469.172943, 274.455597)" style="fill:#ffffff;fill-opacity:1">
      <path style="font-size:medium;font-style:normal;font-variant:normal;font-weight:normal;font-stretch:normal;text-indent:0;text-align:start;text-decoration:none;line-height:normal;letter-spacing:normal;word-spacing:normal;text-transform:none;direction:ltr;block-progression:tb;writing-mode:lr-tb;text-anchor:start;baseline-shift:baseline;color:#000000;fill:#ffffff;fill-opacity:1;stroke:none;stroke-width:6.80000019;marker:none;visibility:visible;display:inline;overflow:visible;enable-background:accumulate;font-family:Sans;-inkscape-font-specification:Sans" d="m 200.32143,53.133929 c -5.70513,0 -15.40625,0.1875 -15.40625,0.1875 l -3.34375,0.0625 0,3.34375 0,67.031251 0,2.03125 6.8125,0 0,-2.03125 0,-31.812501 4.0625,0 0.65625,1.125 19.59375,32.718751 7.90625,0 -0.90625,-1.5 -19.34375,-32.343751 0.40625,0 c 3.56652,0 7.14578,-1.546528 10.15625,-4.15625 3.01047,-2.609722 5.4375,-6.548931 5.4375,-11.3125 0,-1.991741 -0.0937,-3.392902 -0.0937,-5.78125 0,-4.544409 -1.85599,-8.768655 -4.6875,-12 -2.83151,-3.231345 -6.78336,-5.5625 -11.25,-5.5625 z m 0,6.78125 c 2.01351,0 4.31127,1.180155 6.125,3.25 1.81373,2.069845 3,4.897357 3,7.53125 0,2.552404 0.0937,4.004603 0.0937,5.78125 0,2.496903 -1.21161,4.582992 -3.0625,6.1875 -1.85089,1.604508 -4.36077,2.46875 -5.71875,2.46875 l -12.375,0 0,-25.0625 c 2.80678,-0.05235 7.60451,-0.15625 11.9375,-0.15625 z" id="path-1"/>
      <path style="font-size:medium;font-style:normal;font-variant:normal;font-weight:normal;font-stretch:normal;text-indent:0;text-align:start;text-decoration:none;line-height:normal;letter-spacing:normal;word-spacing:normal;text-transform:none;direction:ltr;block-progression:tb;writing-mode:lr-tb;text-anchor:start;baseline-shift:baseline;color:#000000;fill:#ffffff;fill-opacity:1;stroke:none;stroke-width:6.80000019;marker:none;visibility:visible;display:inline;overflow:visible;enable-background:accumulate;font-family:Sans;-inkscape-font-specification:Sans" d="m 157.94643,52.477679 c -20.81816,0 -37.84375,15.335441 -37.84375,37.125 0,12.739631 5.30651,22.540241 12.78125,28.812501 7.47474,6.27226 16.97104,9.18466 25.71875,8.875 6.39572,-0.2264 10.95684,-1.47311 13.96875,-2.71875 1.33624,-0.55263 2.362,-1.15573 3.15625,-1.65625 l 0,-7.8125 -0.53125,-0.59375 -2.5,2.3125 c 0,0 -0.51449,0.54421 -2.75,1.46875 -2.23551,0.92454 -5.94344,1.98749 -11.59375,2.1875 -7.04871,0.24951 -15.02822,-2.16025 -21.09375,-7.25 -6.06553,-5.08975 -10.34375,-12.72462 -10.34375,-23.625001 0,-18.345271 13.43985,-30.3125 31.03125,-30.3125 5.12595,0 8.914,1.014168 11.375,2 2.461,0.985832 3.375,1.78125 3.375,1.78125 l 2.6875,2.09375 0.34375,-0.4375 0,-7.8125 c -0.87746,-0.53964 -2.18132,-1.259045 -3.875,-1.9375 -3.18005,-1.273869 -7.86313,-2.5 -13.90625,-2.5 z" id="path-2"/>
      <path style="font-size:medium;font-style:normal;font-variant:normal;font-weight:normal;font-stretch:normal;text-indent:0;text-align:start;text-decoration:none;line-height:normal;letter-spacing:normal;word-spacing:normal;text-transform:none;direction:ltr;block-progression:tb;writing-mode:lr-tb;text-anchor:start;baseline-shift:baseline;color:#000000;fill:#ffffff;fill-opacity:1;stroke:none;stroke-width:6.80000019;marker:none;visibility:visible;display:inline;overflow:visible;enable-background:accumulate;font-family:Sans;-inkscape-font-specification:Sans" d="m 267.69643,53.133929 0,3.375 0,65.718751 0,3.375 3.375,0.0312 24.6875,0.21875 3.40625,0 0.0312,-6.78125 -3.40625,-0.0312 -21.3125,-0.15625 0,-62.375001 0,-3.375 -6.78125,0 z" id="path-3"/>
      <path style="font-size:medium;font-style:normal;font-variant:normal;font-weight:normal;font-stretch:normal;text-indent:0;text-align:start;text-decoration:none;line-height:normal;letter-spacing:normal;word-spacing:normal;text-transform:none;direction:ltr;block-progression:tb;writing-mode:lr-tb;text-anchor:start;baseline-shift:baseline;color:#000000;fill:#ffffff;fill-opacity:1;stroke:none;stroke-width:6.80000019;marker:none;visibility:visible;display:inline;overflow:visible;enable-background:accumulate;font-family:Sans;-inkscape-font-specification:Sans" d="m 260.97768,53.102679 -3.40625,0.03125 -29.0625,0.1875 -3.375,0.03125 0,3.375 0,29.5625 -0.0312,3.40625 0.0312,0 0,32.531251 0,0.15625 -0.0312,3.40625 3.40625,0 29.0625,0.21875 3.40625,0 0.0625,-6.78125 -3.40625,-0.0312 -25.6875,-0.15625 0,-29.281251 25.625,0.15625 3.40625,0.03125 0.0625,-6.8125 -3.40625,-0.03125 -25.6875,-0.15625 0,-22.875 25.6875,-0.15625 3.40625,-0.03125 -0.0625,-6.78125 z" id="path-4"/>
      <path style="font-size:medium;font-style:normal;font-variant:normal;font-weight:normal;font-stretch:normal;text-indent:0;text-align:start;text-decoration:none;line-height:normal;letter-spacing:normal;word-spacing:normal;text-transform:none;direction:ltr;block-progression:tb;writing-mode:lr-tb;text-anchor:start;baseline-shift:baseline;color:#000000;fill:#ffffff;fill-opacity:1;stroke:none;stroke-width:6.80000019;marker:none;visibility:visible;display:inline;overflow:visible;enable-background:accumulate;font-family:Sans;-inkscape-font-specification:Sans" d="m 106.79018,53.602679 0,51.968751 c -0.22414,3.88508 -1.7433,7.74846 -4.65625,10.625 -2.912954,2.87654 -7.259422,4.90625 -13.750001,4.90625 -7.103862,0 -10.948267,-2.70096 -13.4375,-5.8125 -2.489233,-3.11154 -3.34375,-7.15807 -3.34375,-7.9375 l 0,-53.562501 -6.78125,0 0,53.562501 c 0,3.14913 1.230305,7.70976 4.8125,12.1875 3.582195,4.47774 9.782434,8.375 18.75,8.375 7.973707,0 14.270091,-2.69797 18.500001,-6.875 4.2299,-4.17703 6.37593,-9.69312 6.6875,-15.09375 l 0,-0.0937 0,-0.0937 0,-52.156251 -6.78125,0 z" id="path-5"/>
    </g>
  </g>
</svg>